<svg width="207" height="49" viewBox="0 0 207 49" fill="none" xmlns="http://www.w3.org/2000/svg">
<circle cx="10" cy="38" r="10" fill="#ADE8F4"/>
<circle cx="36" cy="12" r="10" fill="#00B4D8"/>
<circle cx="10" cy="12" r="10" fill="#00B4D8"/>
<circle cx="36" cy="38" r="10" fill="#00B4D8"/>
<path d="M76.22 8H80.94V22H76.22V8ZM71.86 22H67.14V8H71.86V22ZM76.54 16.84H71.54V12.96H76.54V16.84ZM83.2142 22V8H90.1142C91.6742 8 93.0476 8.28667 94.2342 8.86C95.4209 9.42 96.3476 10.22 97.0142 11.26C97.6809 12.3 98.0142 13.54 98.0142 14.98C98.0142 16.4333 97.6809 17.6867 97.0142 18.74C96.3476 19.78 95.4209 20.5867 94.2342 21.16C93.0476 21.72 91.6742 22 90.1142 22H83.2142ZM87.9342 18.32H89.9142C90.5809 18.32 91.1609 18.1933 91.6542 17.94C92.1609 17.6867 92.5542 17.3133 92.8342 16.82C93.1142 16.3133 93.2542 15.7 93.2542 14.98C93.2542 14.2733 93.1142 13.6733 92.8342 13.18C92.5542 12.6867 92.1609 12.3133 91.6542 12.06C91.1609 11.8067 90.5809 11.68 89.9142 11.68H87.9342V18.32ZM99.7377 22V8H106.478C107.784 8 108.911 8.21333 109.858 8.64C110.818 9.06667 111.558 9.68 112.078 10.48C112.598 11.2667 112.858 12.2 112.858 13.28C112.858 14.36 112.598 15.2933 112.078 16.08C111.558 16.8667 110.818 17.48 109.858 17.92C108.911 18.3467 107.784 18.56 106.478 18.56H102.358L104.458 16.54V22H99.7377ZM104.458 17.06L102.358 14.92H106.178C106.831 14.92 107.311 14.7733 107.618 14.48C107.938 14.1867 108.098 13.7867 108.098 13.28C108.098 12.7733 107.938 12.3733 107.618 12.08C107.311 11.7867 106.831 11.64 106.178 11.64H102.358L104.458 9.5V17.06Z" fill="#00B4D8"/>
<path d="M67.12 44V33.92H67.925V43.216H72.825V44H67.12ZM75.351 44V33.92H81.581V34.704H76.156V38.533H80.741V39.317H76.156V43.216H81.581V44H75.351ZM83.897 44L87.467 33.92H88.468L92.038 44H91.184L87.754 34.34H88.16L84.751 44H83.897ZM85.374 41.466V40.703H90.554V41.466H85.374ZM94.6223 44V33.92H98.4233C98.5213 33.92 98.6263 33.9247 98.7383 33.934C98.855 33.9387 98.9763 33.9527 99.1023 33.976C99.6063 34.0553 100.038 34.2373 100.397 34.522C100.761 34.802 101.039 35.1567 101.23 35.586C101.422 36.0107 101.517 36.4797 101.517 36.993C101.517 37.735 101.319 38.3813 100.922 38.932C100.526 39.4827 99.9727 39.8327 99.2633 39.982L99.0323 40.073H95.4273V44H94.6223ZM100.831 44L98.8433 39.898L99.5923 39.52L101.776 44H100.831ZM95.4273 39.282H98.4093C98.4933 39.282 98.589 39.2773 98.6963 39.268C98.8083 39.2587 98.9203 39.2447 99.0323 39.226C99.3963 39.1513 99.6997 39.0043 99.9423 38.785C100.185 38.561 100.367 38.2927 100.488 37.98C100.61 37.6673 100.67 37.3383 100.67 36.993C100.67 36.6477 100.61 36.321 100.488 36.013C100.367 35.7003 100.185 35.4343 99.9423 35.215C99.6997 34.991 99.3963 34.8417 99.0323 34.767C98.9203 34.7437 98.8083 34.7273 98.6963 34.718C98.589 34.7087 98.4933 34.704 98.4093 34.704H95.4273V39.282ZM104.648 44V33.92H105.46L111.298 42.565V33.92H112.11V44H111.298L105.46 35.341V44H104.648ZM115.538 44V33.92H116.343V44H115.538ZM119.776 44V33.92H120.588L126.426 42.565V33.92H127.238V44H126.426L120.588 35.341V44H119.776ZM134.53 44.21C133.798 44.21 133.147 44.084 132.577 43.832C132.013 43.58 131.537 43.223 131.149 42.761C130.762 42.299 130.468 41.746 130.267 41.102C130.067 40.458 129.966 39.744 129.966 38.96C129.966 37.9193 130.141 37.007 130.491 36.223C130.846 35.4343 131.362 34.8207 132.038 34.382C132.715 33.9433 133.546 33.724 134.53 33.724C135.548 33.724 136.383 33.962 137.036 34.438C137.694 34.914 138.156 35.5393 138.422 36.314L137.624 36.559C137.391 35.9383 137.011 35.4437 136.483 35.075C135.961 34.7017 135.317 34.5127 134.551 34.508C133.725 34.508 133.037 34.697 132.486 35.075C131.94 35.4483 131.53 35.971 131.254 36.643C130.979 37.315 130.837 38.0873 130.827 38.96C130.818 39.8327 130.951 40.605 131.226 41.277C131.506 41.9443 131.924 42.4693 132.479 42.852C133.035 43.23 133.725 43.419 134.551 43.419C135.34 43.4237 135.984 43.2697 136.483 42.957C136.987 42.6443 137.361 42.2057 137.603 41.641C137.851 41.0717 137.984 40.4067 138.002 39.646H135.496V38.911H138.842C138.856 39.0277 138.863 39.142 138.863 39.254C138.868 39.366 138.87 39.4523 138.87 39.513C138.87 40.4043 138.714 41.2047 138.401 41.914C138.093 42.6233 137.617 43.1833 136.973 43.594C136.334 44.0047 135.52 44.21 134.53 44.21ZM149.16 44.21C148.469 44.21 147.846 44.0957 147.291 43.867C146.74 43.6383 146.283 43.314 145.919 42.894C145.56 42.474 145.319 41.9747 145.198 41.396L146.024 41.256C146.197 41.928 146.565 42.4577 147.13 42.845C147.699 43.2323 148.383 43.426 149.181 43.426C149.722 43.426 150.201 43.3397 150.616 43.167C151.031 42.9943 151.356 42.7517 151.589 42.439C151.822 42.1217 151.939 41.753 151.939 41.333C151.939 41.0297 151.883 40.7753 151.771 40.57C151.664 40.3647 151.524 40.1967 151.351 40.066C151.178 39.9307 150.994 39.8233 150.798 39.744C150.602 39.66 150.418 39.5923 150.245 39.541L147.711 38.785C147.375 38.687 147.074 38.5657 146.808 38.421C146.547 38.2717 146.325 38.1013 146.143 37.91C145.966 37.714 145.828 37.4923 145.73 37.245C145.637 36.9977 145.59 36.7223 145.59 36.419C145.59 35.8777 145.735 35.404 146.024 34.998C146.313 34.592 146.71 34.277 147.214 34.053C147.723 33.8243 148.306 33.71 148.964 33.71C149.627 33.7147 150.222 33.8383 150.749 34.081C151.276 34.319 151.708 34.6573 152.044 35.096C152.385 35.5347 152.604 36.055 152.702 36.657L151.869 36.804C151.804 36.342 151.636 35.9383 151.365 35.593C151.099 35.2477 150.758 34.9793 150.343 34.788C149.928 34.5967 149.466 34.501 148.957 34.501C148.467 34.4963 148.033 34.578 147.655 34.746C147.282 34.914 146.988 35.1403 146.773 35.425C146.558 35.7097 146.451 36.0317 146.451 36.391C146.451 36.7643 146.551 37.063 146.752 37.287C146.957 37.5063 147.207 37.679 147.501 37.805C147.8 37.931 148.084 38.0337 148.355 38.113L150.385 38.715C150.576 38.771 150.805 38.8503 151.071 38.953C151.337 39.0557 151.598 39.2027 151.855 39.394C152.112 39.5807 152.324 39.8303 152.492 40.143C152.665 40.451 152.751 40.8383 152.751 41.305C152.751 41.7577 152.665 42.1637 152.492 42.523C152.319 42.8823 152.072 43.188 151.75 43.44C151.428 43.6873 151.048 43.8763 150.609 44.007C150.17 44.1423 149.687 44.21 149.16 44.21ZM159.528 44.21C158.524 44.21 157.682 43.9883 157.001 43.545C156.319 43.097 155.806 42.4787 155.461 41.69C155.115 40.9013 154.943 39.9913 154.943 38.96C154.943 37.9287 155.115 37.0187 155.461 36.23C155.806 35.4413 156.319 34.8253 157.001 34.382C157.682 33.934 158.524 33.71 159.528 33.71C160.699 33.71 161.649 34.0133 162.377 34.62C163.109 35.2267 163.606 36.0387 163.868 37.056L163.035 37.259C162.82 36.4143 162.419 35.7447 161.831 35.25C161.247 34.7507 160.48 34.501 159.528 34.501C158.702 34.501 158.013 34.69 157.463 35.068C156.917 35.446 156.504 35.971 156.224 36.643C155.948 37.315 155.808 38.0873 155.804 38.96C155.794 39.8327 155.927 40.605 156.203 41.277C156.483 41.9443 156.9 42.4693 157.456 42.852C158.011 43.23 158.702 43.419 159.528 43.419C160.48 43.419 161.247 43.1693 161.831 42.67C162.419 42.1707 162.82 41.501 163.035 40.661L163.868 40.864C163.606 41.8813 163.109 42.6933 162.377 43.3C161.649 43.9067 160.699 44.21 159.528 44.21ZM166.731 44V33.92H167.536V38.568H173.374V33.92H174.186V44H173.374V39.352H167.536V44H166.731ZM181.506 44.21C180.503 44.21 179.66 43.9883 178.979 43.545C178.298 43.097 177.784 42.4787 177.439 41.69C177.094 40.9013 176.921 39.9913 176.921 38.96C176.921 37.9287 177.094 37.0187 177.439 36.23C177.784 35.4413 178.298 34.8253 178.979 34.382C179.66 33.934 180.503 33.71 181.506 33.71C182.509 33.71 183.349 33.934 184.026 34.382C184.707 34.8253 185.221 35.4413 185.566 36.23C185.911 37.0187 186.084 37.9287 186.084 38.96C186.084 39.9913 185.911 40.9013 185.566 41.69C185.221 42.4787 184.707 43.097 184.026 43.545C183.349 43.9883 182.509 44.21 181.506 44.21ZM181.506 43.419C182.332 43.4237 183.02 43.237 183.571 42.859C184.122 42.4763 184.535 41.949 184.81 41.277C185.085 40.605 185.223 39.8327 185.223 38.96C185.223 38.0873 185.085 37.315 184.81 36.643C184.535 35.971 184.122 35.446 183.571 35.068C183.02 34.69 182.332 34.501 181.506 34.501C180.68 34.4963 179.992 34.683 179.441 35.061C178.895 35.439 178.484 35.9663 178.209 36.643C177.934 37.315 177.791 38.0873 177.782 38.96C177.773 39.8327 177.906 40.605 178.181 41.277C178.461 41.9443 178.879 42.4693 179.434 42.852C179.989 43.23 180.68 43.419 181.506 43.419ZM192.844 44.21C191.84 44.21 190.998 43.9883 190.317 43.545C189.635 43.097 189.122 42.4787 188.777 41.69C188.431 40.9013 188.259 39.9913 188.259 38.96C188.259 37.9287 188.431 37.0187 188.777 36.23C189.122 35.4413 189.635 34.8253 190.317 34.382C190.998 33.934 191.84 33.71 192.844 33.71C193.847 33.71 194.687 33.934 195.364 34.382C196.045 34.8253 196.558 35.4413 196.904 36.23C197.249 37.0187 197.422 37.9287 197.422 38.96C197.422 39.9913 197.249 40.9013 196.904 41.69C196.558 42.4787 196.045 43.097 195.364 43.545C194.687 43.9883 193.847 44.21 192.844 44.21ZM192.844 43.419C193.67 43.4237 194.358 43.237 194.909 42.859C195.459 42.4763 195.872 41.949 196.148 41.277C196.423 40.605 196.561 39.8327 196.561 38.96C196.561 38.0873 196.423 37.315 196.148 36.643C195.872 35.971 195.459 35.446 194.909 35.068C194.358 34.69 193.67 34.501 192.844 34.501C192.018 34.4963 191.329 34.683 190.779 35.061C190.233 35.439 189.822 35.9663 189.547 36.643C189.271 37.315 189.129 38.0873 189.12 38.96C189.11 39.8327 189.243 40.605 189.519 41.277C189.799 41.9443 190.216 42.4693 190.772 42.852C191.327 43.23 192.018 43.419 192.844 43.419ZM200.297 44V33.92H201.102V43.216H206.002V44H200.297Z" fill="#00B4D8" fill-opacity="0.83"/>
</svg>
